<svg version="1.1" id="Layer_1" xmlns="http://www.w3.org/2000/svg" xmlns:xlink="http://www.w3.org/1999/xlink" x="0px" y="0px"
	 width="100%" viewBox="0 0 254 254" enable-background="new 0 0 254 254" xml:space="preserve">
<path fill="#FFFFFF" opacity="1.000000" stroke="none" 
	d="
M167.000000,255.000000 
	C111.333336,255.000000 56.166672,255.000000 1.000007,255.000000 
	C1.000005,170.333344 1.000005,85.666687 1.000003,1.000019 
	C85.666649,1.000013 170.333298,1.000013 254.999969,1.000006 
	C254.999969,85.666649 254.999969,170.333298 254.999985,254.999969 
	C225.833328,255.000000 196.666672,255.000000 167.000000,255.000000 
M25.520679,203.000000 
	C33.682995,203.000000 41.861893,202.679733 50.002384,203.101227 
	C56.526257,203.439026 60.893742,200.107300 63.802654,195.286224 
	C72.048164,181.620544 79.714478,167.606506 87.684334,153.773132 
	C97.266190,137.141815 107.021370,120.609566 116.499161,103.919518 
	C119.747910,98.198601 123.275803,92.317215 119.093369,85.362785 
	C114.352631,77.479996 109.542198,69.621880 105.222420,61.507942 
	C100.781631,53.166721 87.241272,51.883583 81.479065,61.290508 
	C70.867882,78.613495 61.130478,96.470833 50.981987,114.078423 
	C43.892593,126.378487 36.684090,138.609940 29.603834,150.915222 
	C22.444336,163.358215 15.220428,175.768570 8.328588,188.359528 
	C4.201412,195.899597 8.838511,202.973419 17.534676,202.998947 
	C19.866772,203.005798 22.198904,203.000000 25.520679,203.000000 
M209.958984,125.661903 
	C209.418518,125.033501 208.761230,124.472420 208.354599,123.766884 
	C196.600677,103.372276 184.660278,83.080696 173.232101,62.504711 
	C167.878143,52.865120 153.449921,52.447056 148.768036,61.511772 
	C145.217712,68.385635 141.408295,75.204903 136.955887,81.513283 
	C131.554413,89.166351 132.790039,96.162224 137.142654,103.521416 
	C144.200195,115.453934 151.155777,127.447510 158.070374,139.463654 
	C168.762833,158.044983 179.220642,176.764145 190.147079,195.206146 
	C193.011047,200.040024 197.366730,203.337967 203.889481,203.104996 
	C214.696335,202.718979 225.527054,203.008255 236.347687,202.997421 
	C245.294907,202.988480 249.877197,195.861252 245.474274,188.054138 
	C233.832932,167.412125 221.877365,146.947311 209.958984,125.661903 
M154.005524,153.508087 
	C147.674637,142.694260 141.135757,131.994110 135.127853,121.003731 
	C133.078461,117.254738 130.637161,116.002090 126.603340,115.896355 
	C122.411407,115.786469 120.911438,118.496971 119.236298,121.369270 
	C113.664032,130.923859 108.055206,140.457214 102.505699,150.024979 
	C96.055290,161.145996 89.481277,172.200485 83.289093,183.464279 
	C79.103119,191.078705 82.732559,196.997162 91.165787,196.998581 
	C115.139816,197.002625 139.122009,196.648407 163.083130,197.204605 
	C170.717880,197.381821 175.626953,190.519562 171.435303,183.733948 
	C165.453842,174.050888 160.130264,163.961411 154.005524,153.508087 
z"/>
<path fill="#17223C" opacity="1.000000" stroke="none" 
	d="
M25.025850,203.000000 
	C22.198904,203.000000 19.866772,203.005798 17.534676,202.998947 
	C8.838511,202.973419 4.201412,195.899597 8.328588,188.359528 
	C15.220428,175.768570 22.444336,163.358215 29.603834,150.915222 
	C36.684090,138.609940 43.892593,126.378487 50.981987,114.078423 
	C61.130478,96.470833 70.867882,78.613495 81.479065,61.290508 
	C87.241272,51.883583 100.781631,53.166721 105.222420,61.507942 
	C109.542198,69.621880 114.352631,77.479996 119.093369,85.362785 
	C123.275803,92.317215 119.747910,98.198601 116.499161,103.919518 
	C107.021370,120.609566 97.266190,137.141815 87.684334,153.773132 
	C79.714478,167.606506 72.048164,181.620544 63.802654,195.286224 
	C60.893742,200.107300 56.526257,203.439026 50.002384,203.101227 
	C41.861893,202.679733 33.682995,203.000000 25.025850,203.000000 
z"/>
<path fill="#17223C" opacity="1.000000" stroke="none" 
	d="
M210.002930,126.036926 
	C221.877365,146.947311 233.832932,167.412125 245.474274,188.054138 
	C249.877197,195.861252 245.294907,202.988480 236.347687,202.997421 
	C225.527054,203.008255 214.696335,202.718979 203.889481,203.104996 
	C197.366730,203.337967 193.011047,200.040024 190.147079,195.206146 
	C179.220642,176.764145 168.762833,158.044983 158.070374,139.463654 
	C151.155777,127.447510 144.200195,115.453934 137.142654,103.521416 
	C132.790039,96.162224 131.554413,89.166351 136.955887,81.513283 
	C141.408295,75.204903 145.217712,68.385635 148.768036,61.511772 
	C153.449921,52.447056 167.878143,52.865120 173.232101,62.504711 
	C184.660278,83.080696 196.600677,103.372276 208.354599,123.766884 
	C208.761230,124.472420 209.418518,125.033501 210.002930,126.036926 
z"/>
<path fill="#157AFD" opacity="1.000000" stroke="none" 
	d="
M154.265594,153.776810 
	C160.130264,163.961411 165.453842,174.050888 171.435303,183.733948 
	C175.626953,190.519562 170.717880,197.381821 163.083130,197.204605 
	C139.122009,196.648407 115.139816,197.002625 91.165787,196.998581 
	C82.732559,196.997162 79.103119,191.078705 83.289093,183.464279 
	C89.481277,172.200485 96.055290,161.145996 102.505699,150.024979 
	C108.055206,140.457214 113.664032,130.923859 119.236298,121.369270 
	C120.911438,118.496971 122.411407,115.786469 126.603340,115.896355 
	C130.637161,116.002090 133.078461,117.254738 135.127853,121.003731 
	C141.135757,131.994110 147.674637,142.694260 154.265594,153.776810 
z"/>
</svg>